<?xml version="1.0" standalone="no"?>
<!DOCTYPE svg PUBLIC "-//W3C//DTD SVG 20010904//EN"
 "http://www.w3.org/TR/2001/REC-SVG-20010904/DTD/svg10.dtd">
<svg version="1.0" xmlns="http://www.w3.org/2000/svg"
 width="1280.000000pt" height="1254.000000pt" viewBox="0 0 1280.000000 1254.000000"
 preserveAspectRatio="xMidYMid meet">
<metadata>
Created by potrace 1.15, written by Peter Selinger 2001-2017
</metadata>
<g transform="translate(0.000000,1254.000000) scale(0.100000,-0.100000)"
fill="#000000" stroke="none">
<path d="M5568 11982 c-455 -306 -1355 -912 -2000 -1346 -645 -433 -1180 -796
-1190 -805 -15 -15 -2367 -4216 -2371 -4235 -1 -5 80 -55 180 -111 l182 -102
112 201 c142 255 330 586 332 586 1 0 2 -1384 2 -3077 0 -2452 3 -3077 13
-3080 6 -3 12 2 12 11 0 14 29 16 255 16 184 0 254 -3 253 -11 -2 -6 3 -14 10
-16 6 -3 12 2 12 11 0 14 30 16 264 16 225 0 265 -2 270 -15 7 -19 26 -19 26
0 0 13 36 15 265 15 229 0 265 -2 265 -15 0 -8 7 -15 15 -15 8 0 15 7 15 15 0
13 36 15 265 15 229 0 265 -2 265 -15 0 -20 19 -19 27 1 6 15 30 16 262 9 155
-4 261 -11 269 -18 9 -7 16 -7 24 1 17 17 519 17 536 0 9 -9 15 -9 24 0 15 15
538 17 538 2 0 -5 7 -10 15 -10 8 0 15 5 15 10 0 16 512 13 529 -2 11 -10 14
-10 18 0 6 15 533 18 533 2 0 -5 7 -10 15 -10 8 0 15 5 15 10 0 16 542 13 559
-2 11 -10 14 -10 18 0 7 17 533 18 551 0 9 -9 15 -9 24 0 17 17 519 17 536 0
9 -9 15 -9 24 0 17 17 519 17 536 0 9 -9 15 -9 24 0 17 17 519 17 536 0 9 -9
15 -9 24 0 17 17 519 17 536 0 8 -8 15 -8 24 0 8 6 110 13 269 18 232 6 256 5
262 -10 8 -20 27 -21 27 -1 0 23 525 23 534 0 7 -19 26 -19 26 0 0 13 36 15
265 15 229 0 265 -2 265 -15 0 -8 7 -15 15 -15 8 0 15 7 15 15 0 13 36 15 265
15 229 0 265 -2 265 -15 0 -19 19 -19 26 0 5 13 45 15 270 15 234 0 264 -2
264 -16 0 -9 6 -14 13 -11 9 3 12 621 12 3046 0 2374 3 3038 12 3025 7 -9 98
-171 203 -359 l191 -342 182 102 c100 56 181 106 180 111 -4 19 -2356 4220
-2371 4235 -10 9 -541 369 -1182 799 -641 431 -1167 786 -1170 790 -8 12
-1658 1120 -1667 1120 -4 0 -380 -251 -835 -558z"/>
</g>
</svg>
